<svg width="49" height="49" viewBox="0 0 49 49" fill="none" xmlns="http://www.w3.org/2000/svg">
<g clip-path="url(#clip0_1135_1405)">
<path d="M38.9851 36.9735C38.5552 36.6754 37.965 36.7826 37.6671 37.2125C37.3785 37.6292 37.0513 38.0344 36.6943 38.417C36.4552 38.6735 36.1262 38.9829 35.7681 39.2875C35.3698 39.6265 35.3217 40.2243 35.6606 40.6227C35.848 40.8428 36.1144 40.9559 36.3825 40.9559C36.5994 40.9559 36.8176 40.8818 36.9959 40.73C37.4136 40.3745 37.7886 40.0214 38.0797 39.7088C38.4985 39.26 38.8836 38.7831 39.2242 38.2914C39.5221 37.8615 39.4151 37.2714 38.9851 36.9735Z" fill="#253D4E"/>
<path d="M34.8588 41.2209C34.6366 40.7474 34.0729 40.5435 33.5991 40.7656L33.5695 40.779C33.0909 40.9901 32.8742 41.5493 33.0855 42.0279C33.2418 42.3821 33.5886 42.5928 33.9524 42.5928C34.0802 42.5928 34.21 42.5668 34.3343 42.512C34.3574 42.5018 34.3803 42.4914 34.4034 42.4807C34.8769 42.2585 35.0808 41.6947 34.8588 41.2209Z" fill="#253D4E"/>
<path d="M46.0967 2.95117H3.26243C1.70212 2.95117 0.432861 4.22062 0.432861 5.78074V32.3244C0.432861 33.8844 1.70212 35.1538 3.26243 35.1538H23.2078C24.0533 38.7311 25.9652 41.2647 27.6363 42.8879C30.0753 45.2574 32.8713 46.5193 33.9519 46.5193C35.0324 46.5193 37.8283 45.2575 40.2675 42.888C41.9385 41.2647 43.8506 38.7311 44.696 35.1539H46.0967C47.6569 35.1539 48.9263 33.8845 48.9263 32.3245V5.78074C48.9263 4.22062 47.6569 2.95117 46.0967 2.95117ZM43.2434 31.2722C43.2435 36.2625 40.9399 39.5726 39.0074 41.4708C36.715 43.7224 34.3636 44.5982 33.9519 44.6248C33.5401 44.5982 31.1885 43.7225 28.8962 41.4708C26.9638 39.5726 24.6603 36.2625 24.6603 31.2722V26.6079C27.9213 25.6649 30.9726 24.3742 33.9522 22.6781C36.8646 24.3311 40.0527 25.6792 43.2434 26.6074V31.2722ZM47.032 32.3244C47.032 32.84 46.6123 33.2595 46.0967 33.2595H45.0254C45.0979 32.6248 45.1377 31.963 45.1377 31.2722V25.8898C45.1377 25.4623 44.8513 25.0879 44.4388 24.9758C40.9995 24.0419 37.5386 22.5865 34.4303 20.7672C34.1348 20.5942 33.769 20.5944 33.4733 20.7673C30.2769 22.6383 27.0031 24.0148 23.4649 24.9758C23.0524 25.088 22.766 25.4624 22.766 25.8898V31.2722C22.766 31.963 22.8057 32.6248 22.8783 33.2595H3.26243C2.74671 33.2595 2.32713 32.8399 2.32713 32.3244V16.2109H47.032V32.3244ZM47.032 14.3167H2.32713V10.5283H47.032V14.3167ZM47.032 8.63398H2.32713V5.78074C2.32713 5.26502 2.74671 4.84544 3.26243 4.84544H46.0967C46.6123 4.84544 47.032 5.26502 47.032 5.78074V8.63398Z" fill="#253D4E"/>
<path d="M11.7983 22.8398C11.2273 22.8398 10.6635 22.9553 10.1416 23.1754C9.63175 22.9594 9.07142 22.8398 8.48382 22.8398C6.13369 22.8398 4.22162 24.7517 4.22162 27.1018C4.22162 29.4518 6.1336 31.3639 8.48382 31.3639C9.07142 31.3639 9.63175 31.2443 10.1415 31.0283C10.6635 31.2484 11.2273 31.3639 11.7983 31.3639C14.1485 31.3639 16.0606 29.4518 16.0606 27.1018C16.0606 24.7517 14.1485 22.8398 11.7983 22.8398ZM8.48382 29.4696C7.1781 29.4696 6.11589 28.4075 6.11589 27.1018C6.11589 25.7961 7.1781 24.7341 8.48382 24.7341C9.78935 24.7341 10.8516 25.7961 10.8516 27.1018C10.8516 28.4074 9.78935 29.4696 8.48382 29.4696ZM12.0331 29.458C12.483 28.7826 12.7458 27.9724 12.7458 27.1019C12.7458 26.2313 12.483 25.4213 12.0332 24.7459C13.229 24.8641 14.1663 25.8756 14.1663 27.1019C14.1663 28.3281 13.229 29.3397 12.0331 29.458Z" fill="#253D4E"/>
<path d="M10.0399 18.5781H5.16808C4.64498 18.5781 4.22095 19.0022 4.22095 19.5253C4.22095 20.0483 4.64498 20.4724 5.16808 20.4724H10.0399C10.563 20.4724 10.987 20.0482 10.987 19.5253C10.987 19.0022 10.563 18.5781 10.0399 18.5781Z" fill="#253D4E"/>
<path d="M12.8397 18.5781H12.7949C12.2717 18.5781 11.8477 19.0022 11.8477 19.5253C11.8477 20.0483 12.2717 20.4724 12.7949 20.4724H12.8397C13.3628 20.4724 13.7869 20.0482 13.7869 19.5253C13.7869 19.0022 13.3628 18.5781 12.8397 18.5781Z" fill="#253D4E"/>
<path d="M39.1507 29.0937C38.781 28.7241 38.1814 28.7239 37.8113 29.0936L32.7463 34.1583L30.0922 31.5039C29.7222 31.1343 29.1225 31.1341 28.7526 31.5039C28.3828 31.8739 28.3827 32.4736 28.7526 32.8434L32.0766 36.1675C32.2616 36.3525 32.504 36.445 32.7463 36.445C32.9887 36.445 33.2312 36.3525 33.416 36.1675L39.1506 30.4333C39.5205 30.0635 39.5205 29.4638 39.1507 29.0937Z" fill="#253D4E"/>
</g>
<defs>
<clipPath id="clip0_1135_1405">
<rect width="48.4934" height="48.4934" fill="white" transform="translate(0.432983 0.488281)"/>
</clipPath>
</defs>
</svg>
