<svg width="59" height="59" viewBox="0 0 59 59" fill="none" xmlns="http://www.w3.org/2000/svg">
<g clip-path="url(#clip0_1135_1384)">
<path d="M15.7603 46.4918H10.911C10.2417 46.4918 9.69862 45.9437 9.69862 45.2684C9.69862 44.593 10.2417 44.0449 10.911 44.0449H15.7603C16.4295 44.0449 16.9726 44.593 16.9726 45.2684C16.9726 45.9437 16.4295 46.4918 15.7603 46.4918Z" fill="#253D4E"/>
<path d="M55.1615 46.491H52.1307C51.4614 46.491 50.9183 45.9429 50.9183 45.2675C50.9183 44.5922 51.4614 44.0441 52.1307 44.0441H54.1552L55.7895 35.2548C55.7677 30.7573 51.9609 26.9157 47.2813 26.9157H39.3211L35.4635 44.0441H42.432C43.1012 44.0441 43.6443 44.5922 43.6443 45.2675C43.6443 45.9429 43.1012 46.491 42.432 46.491H33.9456C33.5771 46.491 33.2279 46.3221 32.9976 46.031C32.7672 45.7422 32.6799 45.3605 32.7624 44.9984L37.1704 25.423C37.2965 24.8627 37.7863 24.4688 38.3537 24.4688H47.2813C53.2969 24.4688 58.1923 29.4091 58.1923 35.4799L56.352 45.4926C56.2453 46.0726 55.7458 46.491 55.1615 46.491Z" fill="#253D4E"/>
<path d="M47.2811 51.385C43.9399 51.385 41.2194 48.642 41.2194 45.2677C41.2194 41.8934 43.9399 39.1504 47.2811 39.1504C50.6223 39.1504 53.3428 41.8934 53.3428 45.2677C53.3428 48.642 50.6223 51.385 47.2811 51.385ZM47.2811 41.5973C45.2759 41.5973 43.6441 43.2441 43.6441 45.2677C43.6441 47.2913 45.2759 48.938 47.2811 48.938C49.2863 48.938 50.9181 47.2913 50.9181 45.2677C50.9181 43.2441 49.2863 41.5973 47.2811 41.5973Z" fill="#253D4E"/>
<path d="M20.6097 51.385C17.2685 51.385 14.548 48.642 14.548 45.2677C14.548 41.8934 17.2685 39.1504 20.6097 39.1504C23.9509 39.1504 26.6713 41.8934 26.6713 45.2677C26.6713 48.642 23.9509 51.385 20.6097 51.385ZM20.6097 41.5973C18.6045 41.5973 16.9727 43.2441 16.9727 45.2677C16.9727 47.2913 18.6045 48.938 20.6097 48.938C22.6149 48.938 24.2467 47.2913 24.2467 45.2677C24.2467 43.2441 22.6149 41.5973 20.6097 41.5973Z" fill="#253D4E"/>
<path d="M15.7604 24.4684H6.0617C5.39249 24.4684 4.84937 23.9203 4.84937 23.2449C4.84937 22.5696 5.39249 22.0215 6.0617 22.0215H15.7604C16.4296 22.0215 16.9727 22.5696 16.9727 23.2449C16.9727 23.9203 16.4296 24.4684 15.7604 24.4684Z" fill="#253D4E"/>
<path d="M15.7603 31.8102H3.63696C2.96776 31.8102 2.42463 31.2621 2.42463 30.5867C2.42463 29.9114 2.96776 29.3633 3.63696 29.3633H15.7603C16.4295 29.3633 16.9726 29.9114 16.9726 30.5867C16.9726 31.2621 16.4295 31.8102 15.7603 31.8102Z" fill="#253D4E"/>
<path d="M15.7604 39.15H1.21233C0.543126 39.15 0 38.6019 0 37.9266C0 37.2512 0.543126 36.7031 1.21233 36.7031H15.7604C16.4296 36.7031 16.9727 37.2512 16.9727 37.9266C16.9727 38.6019 16.4296 39.15 15.7604 39.15Z" fill="#253D4E"/>
<path d="M33.9453 46.4919H25.459C24.7898 46.4919 24.2466 45.9438 24.2466 45.2684C24.2466 44.5931 24.7898 44.045 25.459 44.045H32.9779L38.4867 19.5758H10.911C10.2417 19.5758 9.69862 19.0277 9.69862 18.3524C9.69862 17.677 10.2417 17.1289 10.911 17.1289H40.007C40.3756 17.1289 40.7247 17.2977 40.9551 17.5889C41.1854 17.8777 41.2727 18.2594 41.1902 18.6215L35.1286 45.5376C35.0025 46.0979 34.5103 46.4919 33.9453 46.4919Z" fill="#253D4E"/>
</g>
<defs>
<clipPath id="clip0_1135_1384">
<rect width="58.1921" height="58.7259" fill="white"/>
</clipPath>
</defs>
</svg>
