<svg width="49" height="49" viewBox="0 0 49 49" fill="none" xmlns="http://www.w3.org/2000/svg">
<g clip-path="url(#clip0_1135_1396)">
<path d="M33.6009 40.614H2.94098C1.46395 40.614 0.261719 39.4118 0.261719 37.9347V13.3365C0.261719 12.7788 0.714324 12.3262 1.272 12.3262H39.6626C40.2203 12.3262 40.6729 12.7788 40.6729 13.3365V21.4187C40.6729 21.9764 40.2203 22.429 39.6626 22.429C39.1049 22.429 38.6523 21.9764 38.6523 21.4187V14.3467H2.28228V37.9347C2.28228 38.2984 2.57728 38.5934 2.94098 38.5934H33.6009C34.1586 38.5934 34.6112 39.046 34.6112 39.6037C34.6112 40.1614 34.1586 40.614 33.6009 40.614Z" fill="#253D4E"/>
<path d="M39.6626 14.347C39.307 14.347 38.9615 14.1591 38.7776 13.8237L32.6755 2.74701C32.4997 2.42372 32.1603 2.22368 31.7905 2.22368H9.14408C8.77432 2.22368 8.43486 2.42372 8.25907 2.74701L2.15699 13.8237C1.88826 14.3147 1.26996 14.4865 0.78503 14.2218C0.296055 13.953 0.118246 13.3368 0.38698 12.8498L6.48907 1.7731C7.02047 0.803231 8.03883 0.203125 9.14408 0.203125H31.7925C32.8978 0.203125 33.9161 0.803231 34.4475 1.77108L40.5476 12.8478C40.8183 13.3368 40.6405 13.951 40.1516 14.2197C39.996 14.3066 39.8283 14.347 39.6626 14.347Z" fill="#253D4E"/>
<path d="M20.4675 14.347C19.9098 14.347 19.4572 13.8944 19.4572 13.3368V1.2134C19.4572 0.65573 19.9098 0.203125 20.4675 0.203125C21.0252 0.203125 21.4778 0.65573 21.4778 1.2134V13.3368C21.4778 13.8944 21.0252 14.347 20.4675 14.347Z" fill="#253D4E"/>
<path d="M47.7448 48.6967C47.1871 48.6967 46.7345 48.2441 46.7345 47.6865V43.6453C46.7345 37.517 41.7477 32.5323 35.6214 32.5323H31.5803C31.0226 32.5323 30.57 32.0797 30.57 31.522C30.57 30.9643 31.0226 30.5117 31.5803 30.5117H35.6214C42.8631 30.5117 48.755 36.4037 48.755 43.6453V47.6865C48.755 48.2441 48.3024 48.6967 47.7448 48.6967Z" fill="#253D4E"/>
<path d="M38.6522 38.5937C38.4199 38.5937 38.1855 38.5128 37.9956 38.3492L30.9236 32.2875C30.6973 32.0976 30.57 31.8167 30.57 31.5217C30.57 31.2267 30.6973 30.9459 30.9236 30.7559L37.9956 24.6942C38.4179 24.3326 39.0523 24.379 39.42 24.8034C39.7837 25.2257 39.7332 25.8642 39.3089 26.2279L33.1341 31.5217L39.3109 36.8176C39.7353 37.1813 39.7838 37.8178 39.4221 38.2421C39.218 38.4745 38.9371 38.5937 38.6522 38.5937Z" fill="#253D4E"/>
</g>
<defs>
<clipPath id="clip0_1135_1396">
<rect width="48.4934" height="48.4934" fill="white" transform="translate(0.261719 0.203125)"/>
</clipPath>
</defs>
</svg>
