<svg width="50" height="50" viewBox="0 0 50 50" fill="none" xmlns="http://www.w3.org/2000/svg">
<g clip-path="url(#clip0_1135_1430)">
<path d="M40.5234 36.33C42.4197 38.2436 42.42 41.3411 40.5234 43.255L39.3545 44.4347C39.0387 44.7534 38.5267 44.7535 38.2109 44.4347C37.8951 44.1159 37.895 43.5991 38.2109 43.2804L39.3798 42.1008C40.644 40.8251 40.6442 38.7601 39.3798 37.4841L34.8766 32.9395C33.6152 31.6667 31.563 31.6667 30.3018 32.9395L28.4195 34.8391C26.8919 36.3807 24.4194 36.3809 22.8917 34.8391L14.5522 26.4232C13.0247 24.8817 13.0245 22.3865 14.5522 20.8447L16.4346 18.945C17.6959 17.6722 17.6959 15.6012 16.4346 14.3283L11.9313 9.78381C10.6671 8.508 8.62088 8.5079 7.35656 9.78381L5.71246 11.4429C1.28771 15.9083 1.28731 23.1356 5.71246 27.6014L21.7241 43.7599C24.9036 46.9685 29.6648 47.9752 33.8545 46.3246C34.2706 46.1607 34.7394 46.3682 34.9019 46.788C35.0643 47.2079 34.8587 47.6811 34.4427 47.845C29.6501 49.7333 24.21 48.5771 20.5805 44.914L4.56874 28.7556C-0.476284 23.6643 -0.476284 15.3801 4.56874 10.2888L6.21285 8.6297C8.10907 6.71599 11.1784 6.71568 13.0749 8.6297L17.5782 13.1742C19.4701 15.0834 19.4701 18.19 17.5782 20.0993L15.6959 21.9989C14.8004 22.9026 14.8003 24.3653 15.6959 25.2691L24.0353 33.685C24.9286 34.5866 26.3822 34.5866 27.2758 33.685L29.1581 31.7854C31.0499 29.8763 34.1284 29.8762 36.0202 31.7854L40.5234 36.33ZM45.2349 0.789062H25.0171C22.7875 0.789062 20.9736 2.61964 20.9736 4.8697V13.031C20.9736 15.281 22.7875 17.1116 25.0171 17.1116H25.8258V19.764C25.8258 20.2156 26.1891 20.5802 26.6346 20.5802C26.9431 20.5802 26.5326 20.7762 32.8013 16.996C33.1847 16.7649 33.3097 16.2638 33.0807 15.8768C32.8516 15.4899 32.3551 15.3637 31.9716 15.5948L27.4433 18.3256V16.2955C27.4433 15.8448 27.0812 15.4794 26.6346 15.4794H25.0171C23.6794 15.4794 22.591 14.381 22.591 13.031V4.8697C22.591 3.51972 23.6794 2.42132 25.0171 2.42132H45.2349C46.5726 2.42132 47.661 3.51972 47.661 4.8697V13.031C47.661 14.381 46.5726 15.4794 45.2349 15.4794H36.8108C36.3642 15.4794 36.0021 15.8448 36.0021 16.2955C36.0021 16.7462 36.3642 17.1116 36.8108 17.1116H45.2349C47.4645 17.1116 49.2784 15.281 49.2784 13.031V4.8697C49.2784 2.61964 47.4645 0.789062 45.2349 0.789062ZM27.3422 9.76647C28.5685 9.76647 29.5661 8.75967 29.5661 7.52212C29.5661 6.28456 28.5685 5.27776 27.3422 5.27776H25.9269C25.4803 5.27776 25.1182 5.64319 25.1182 6.09389C25.1182 6.5446 25.4803 6.91002 25.9269 6.91002H27.3422C27.6767 6.91002 27.9487 7.18455 27.9487 7.52212C27.9487 7.85969 27.6767 8.13421 27.3422 8.13421C26.1159 8.13421 25.1182 9.14101 25.1182 10.3786V11.8068C25.1182 12.2575 25.4803 12.6229 25.9269 12.6229H28.7574C29.204 12.6229 29.5661 12.2575 29.5661 11.8068C29.5661 11.3561 29.204 10.9907 28.7574 10.9907H26.7356V10.3786C26.7356 10.041 27.0077 9.76647 27.3422 9.76647ZM34.4184 12.6229C34.865 12.6229 35.2271 12.2575 35.2271 11.8068C35.2271 11.1134 35.2271 6.78995 35.2271 6.09389C35.2271 5.64319 34.865 5.27776 34.4184 5.27776C33.9718 5.27776 33.6097 5.64319 33.6097 6.09389V8.13421H32.3966V6.09389C32.3966 5.64319 32.0345 5.27776 31.5879 5.27776C31.1413 5.27776 30.7792 5.64319 30.7792 6.09389V8.95034C30.7792 9.40105 31.1413 9.76647 31.5879 9.76647H33.6097V11.8068C33.6097 12.2575 33.9717 12.6229 34.4184 12.6229ZM42.3561 12.6231C42.6918 12.6231 43.0055 12.4105 43.1208 12.0721L45.0667 6.35924C45.2471 5.82987 44.8567 5.27776 44.302 5.27776H41.4947C41.0481 5.27776 40.686 5.64319 40.686 6.09389C40.686 6.5446 41.0481 6.91002 41.4947 6.91002H43.1689L41.5913 11.5414C41.4099 12.0736 41.8043 12.6234 42.3561 12.6231ZM38.0103 12.0026L39.4255 6.28966C39.5338 5.85232 39.2703 5.40926 38.8371 5.2999C38.4037 5.19075 37.9647 5.4565 37.8563 5.89374L36.4411 11.6066C36.3328 12.044 36.5962 12.487 37.0295 12.5964C37.4635 12.7057 37.9021 12.4394 38.0103 12.0026Z" fill="#253D4E"/>
</g>
<defs>
<clipPath id="clip0_1135_1430">
<rect width="48.4934" height="48.9383" fill="white" transform="translate(0.785156 0.294922)"/>
</clipPath>
</defs>
</svg>
