<svg width="169" height="41" viewBox="0 0 169 41" fill="none" xmlns="http://www.w3.org/2000/svg">
<rect x="98" y="4" width="71" height="34" rx="5" fill="#FED700"/>
<path d="M67.3122 29L61.3059 13.1708H61.2081C61.2407 13.5052 61.2692 13.913 61.2937 14.3941C61.3182 14.8753 61.3385 15.4013 61.3549 15.9721C61.3712 16.5348 61.3793 17.1098 61.3793 17.697V29H59.4465V11.1157H62.5292L68.1929 25.9907H68.2786L74.028 11.1157H77.0861V29H75.031V17.5502C75.031 17.0201 75.0392 16.49 75.0555 15.9599C75.0718 15.4217 75.0922 14.9161 75.1167 14.4431C75.1411 13.9619 75.1656 13.546 75.1901 13.1953H75.0922L69.0125 29H67.3122ZM80.5593 15.5929H82.7367L85.697 23.3729C85.8683 23.8296 86.0273 24.27 86.1741 24.6941C86.3209 25.11 86.4514 25.5096 86.5655 25.8929C86.6797 26.2762 86.7694 26.6472 86.8346 27.0061H86.9203C87.0345 26.5983 87.1976 26.0641 87.4096 25.4036C87.6216 24.7349 87.85 24.0539 88.0946 23.3607L90.8959 15.5929H93.0856L87.2506 30.9695C86.9407 31.7931 86.5778 32.5108 86.1618 33.1224C85.7541 33.7341 85.2566 34.203 84.6695 34.5292C84.0823 34.8636 83.3728 35.0307 82.541 35.0307C82.1577 35.0307 81.8192 35.0063 81.5256 34.9573C81.2321 34.9166 80.9792 34.8676 80.7672 34.8105V33.1836C80.9466 33.2244 81.1627 33.2611 81.4156 33.2937C81.6765 33.3263 81.9456 33.3426 82.2229 33.3426C82.7285 33.3426 83.1648 33.2448 83.5318 33.049C83.9069 32.8615 84.2291 32.5842 84.4982 32.2172C84.7673 31.8502 84.9997 31.4139 85.1955 30.9083L85.9294 29.0245L80.5593 15.5929Z" fill="#28243B"/>
<path d="M114.405 24.0335C114.405 25.0937 114.148 26.0152 113.635 26.7981C113.121 27.581 112.371 28.1845 111.384 28.6086C110.405 29.0326 109.215 29.2447 107.812 29.2447C107.192 29.2447 106.584 29.2039 105.989 29.1223C105.402 29.0408 104.835 28.9225 104.289 28.7676C103.751 28.6045 103.237 28.4047 102.747 28.1682V24.6451C103.596 25.0203 104.476 25.3587 105.39 25.6605C106.303 25.9622 107.208 26.1131 108.105 26.1131C108.725 26.1131 109.223 26.0315 109.598 25.8684C109.981 25.7053 110.258 25.4811 110.43 25.1956C110.601 24.9102 110.687 24.584 110.687 24.217C110.687 23.7685 110.536 23.3852 110.234 23.0671C109.932 22.7491 109.516 22.4514 108.986 22.1741C108.464 21.8969 107.873 21.5992 107.212 21.2811C106.797 21.0854 106.344 20.8489 105.855 20.5716C105.365 20.2862 104.9 19.9396 104.46 19.5319C104.02 19.1241 103.657 18.6307 103.371 18.0517C103.094 17.4645 102.955 16.7632 102.955 15.9477C102.955 14.8794 103.2 13.966 103.689 13.2075C104.179 12.4491 104.876 11.8701 105.781 11.4705C106.695 11.0627 107.771 10.8589 109.011 10.8589C109.94 10.8589 110.825 10.969 111.665 11.1891C112.513 11.4012 113.398 11.7111 114.32 12.1188L113.096 15.0669C112.273 14.7326 111.535 14.4757 110.882 14.2963C110.23 14.1087 109.565 14.0149 108.888 14.0149C108.415 14.0149 108.012 14.0924 107.677 14.2473C107.343 14.3941 107.09 14.6062 106.919 14.8834C106.748 15.1525 106.662 15.4665 106.662 15.8253C106.662 16.2494 106.784 16.6082 107.029 16.9018C107.282 17.1873 107.657 17.4645 108.154 17.7337C108.66 18.0028 109.288 18.3167 110.038 18.6756C110.952 19.1078 111.73 19.5604 112.375 20.0334C113.027 20.4983 113.529 21.0487 113.879 21.6848C114.23 22.3128 114.405 23.0957 114.405 24.0335ZM122.086 9.96587V13.8436C122.086 14.5205 122.062 15.1648 122.013 15.7764C121.972 16.3881 121.94 16.8203 121.915 17.0731H122.111C122.404 16.6001 122.751 16.2168 123.151 15.9232C123.558 15.6296 124.007 15.4135 124.496 15.2749C124.986 15.1362 125.512 15.0669 126.074 15.0669C127.061 15.0669 127.921 15.2423 128.655 15.5929C129.389 15.9354 129.96 16.4778 130.368 17.2199C130.776 17.9538 130.98 18.908 130.98 20.0823V29H127.249V21.012C127.249 20.0334 127.069 19.2954 126.71 18.7979C126.352 18.3004 125.797 18.0517 125.047 18.0517C124.296 18.0517 123.705 18.227 123.273 18.5777C122.841 18.9202 122.535 19.4299 122.356 20.1068C122.176 20.7755 122.086 21.5951 122.086 22.5656V29H118.355V9.96587H122.086ZM148.251 22.1374C148.251 23.2792 148.096 24.2904 147.786 25.1712C147.485 26.0519 147.04 26.7981 146.453 27.4097C145.874 28.0132 145.173 28.4699 144.349 28.7798C143.534 29.0897 142.612 29.2447 141.584 29.2447C140.622 29.2447 139.737 29.0897 138.93 28.7798C138.131 28.4699 137.433 28.0132 136.838 27.4097C136.251 26.7981 135.794 26.0519 135.468 25.1712C135.15 24.2904 134.991 23.2792 134.991 22.1374C134.991 20.6206 135.26 19.3361 135.798 18.2841C136.337 17.2321 137.103 16.4329 138.098 15.8865C139.093 15.3401 140.28 15.0669 141.658 15.0669C142.938 15.0669 144.072 15.3401 145.059 15.8865C146.053 16.4329 146.832 17.2321 147.395 18.2841C147.966 19.3361 148.251 20.6206 148.251 22.1374ZM138.795 22.1374C138.795 23.0345 138.893 23.7889 139.089 24.4005C139.285 25.0121 139.591 25.4729 140.006 25.7828C140.422 26.0927 140.965 26.2476 141.633 26.2476C142.294 26.2476 142.828 26.0927 143.236 25.7828C143.652 25.4729 143.954 25.0121 144.141 24.4005C144.337 23.7889 144.435 23.0345 144.435 22.1374C144.435 21.2322 144.337 20.4819 144.141 19.8866C143.954 19.2831 143.652 18.8305 143.236 18.5288C142.82 18.227 142.278 18.0762 141.609 18.0762C140.622 18.0762 139.904 18.4146 139.456 19.0915C139.016 19.7684 138.795 20.7837 138.795 22.1374ZM159.945 15.0669C161.486 15.0669 162.73 15.6663 163.676 16.8651C164.63 18.0639 165.107 19.8214 165.107 22.1374C165.107 23.6869 164.883 24.9917 164.434 26.0519C163.986 27.1039 163.366 27.8991 162.575 28.4373C161.784 28.9755 160.874 29.2447 159.847 29.2447C159.186 29.2447 158.62 29.1631 158.147 29C157.674 28.8287 157.27 28.6126 156.936 28.3517C156.601 28.0825 156.312 27.7971 156.067 27.4954H155.871C155.937 27.8216 155.985 28.1559 156.018 28.4985C156.051 28.841 156.067 29.1753 156.067 29.5015V35.0185H152.336V15.3238H155.37L155.896 17.0976H156.067C156.312 16.7306 156.609 16.3921 156.96 16.0822C157.311 15.7723 157.731 15.5277 158.22 15.3483C158.717 15.1607 159.292 15.0669 159.945 15.0669ZM158.746 18.0517C158.094 18.0517 157.576 18.1863 157.192 18.4554C156.809 18.7245 156.528 19.1282 156.348 19.6664C156.177 20.2047 156.083 20.8856 156.067 21.7093V22.113C156.067 22.9937 156.149 23.7399 156.312 24.3516C156.483 24.9632 156.764 25.428 157.156 25.7461C157.555 26.0641 158.102 26.2232 158.795 26.2232C159.366 26.2232 159.835 26.0641 160.202 25.7461C160.569 25.428 160.842 24.9632 161.021 24.3516C161.209 23.7318 161.303 22.9774 161.303 22.0885C161.303 20.7511 161.095 19.7439 160.679 19.067C160.263 18.3901 159.619 18.0517 158.746 18.0517Z" fill="white"/>
<path d="M2.2381 14.5479H44.7619V35.8098H2.2381V14.5479Z" fill="#CFD8DC"/>
<path d="M2.2381 35.8096H44.7619V40.2858H2.2381V35.8096Z" fill="#B0BEC5"/>
<path d="M26.8571 20.1426H40.2857V40.2854H26.8571V20.1426Z" fill="#455A64"/>
<path d="M6.71429 20.1426H22.381V32.4521H6.71429V20.1426Z" fill="#E3F2FD"/>
<path d="M7.83333 21.2617H21.2619V31.3331H7.83333V21.2617Z" fill="#1E88E5"/>
<path d="M37.4881 30.7734C37.1524 30.7734 36.9286 30.9972 36.9286 31.333V33.5711C36.9286 33.9068 37.1524 34.1306 37.4881 34.1306C37.8238 34.1306 38.0476 33.9068 38.0476 33.5711V31.333C38.0476 30.9972 37.8238 30.7734 37.4881 30.7734Z" fill="#90A4AE"/>
<path d="M23.5 17.9047C25.3541 17.9047 26.8571 16.4017 26.8571 14.5476C26.8571 12.6935 25.3541 11.1904 23.5 11.1904C21.6459 11.1904 20.1429 12.6935 20.1429 14.5476C20.1429 16.4017 21.6459 17.9047 23.5 17.9047Z" fill="#558B2F"/>
<path d="M36.9286 17.9047C38.7827 17.9047 40.2857 16.4017 40.2857 14.5476C40.2857 12.6935 38.7827 11.1904 36.9286 11.1904C35.0745 11.1904 33.5714 12.6935 33.5714 14.5476C33.5714 16.4017 35.0745 17.9047 36.9286 17.9047Z" fill="#558B2F"/>
<path d="M10.0714 17.9047C11.9255 17.9047 13.4286 16.4017 13.4286 14.5476C13.4286 12.6935 11.9255 11.1904 10.0714 11.1904C8.21733 11.1904 6.71429 12.6935 6.71429 14.5476C6.71429 16.4017 8.21733 17.9047 10.0714 17.9047Z" fill="#558B2F"/>
<path d="M41.4048 0H5.59524C4.36429 0 3.35714 1.00714 3.35714 2.2381V5.59524H43.6429V2.2381C43.6429 1.00714 42.6357 0 41.4048 0ZM20.1429 5.59524H26.8571V14.5476H20.1429V5.59524ZM38.0476 5.59524H32.4524L33.5714 14.5476H40.2857L38.0476 5.59524ZM8.95238 5.59524H14.5476L13.4286 14.5476H6.71429L8.95238 5.59524Z" fill="#7CB342"/>
<path d="M30.2143 17.9047C32.0684 17.9047 33.5714 16.4017 33.5714 14.5476C33.5714 12.6935 32.0684 11.1904 30.2143 11.1904C28.3602 11.1904 26.8571 12.6935 26.8571 14.5476C26.8571 16.4017 28.3602 17.9047 30.2143 17.9047Z" fill="#FFA000"/>
<path d="M47 14.5476C47 16.45 45.5452 17.9047 43.6429 17.9047C41.7405 17.9047 40.2857 16.45 40.2857 14.5476C40.2857 12.6452 41.7405 11.1904 43.6429 11.1904L47 14.5476Z" fill="#FFA000"/>
<path d="M16.7857 17.9047C18.6398 17.9047 20.1429 16.4017 20.1429 14.5476C20.1429 12.6935 18.6398 11.1904 16.7857 11.1904C14.9316 11.1904 13.4286 12.6935 13.4286 14.5476C13.4286 16.4017 14.9316 17.9047 16.7857 17.9047Z" fill="#FFA000"/>
<path d="M0 14.5476C0 16.45 1.45476 17.9047 3.35714 17.9047C5.25952 17.9047 6.71429 16.45 6.71429 14.5476C6.71429 12.6452 5.25952 11.1904 3.35714 11.1904L0 14.5476Z" fill="#FFA000"/>
<path d="M32.4524 5.5957H26.8571V14.5481H33.5714L32.4524 5.5957ZM43.6429 5.5957H38.0476L40.2857 14.5481H47L43.6429 5.5957ZM14.5476 5.5957H20.1429V14.5481H13.4286L14.5476 5.5957ZM3.35714 5.5957H8.95238L6.71429 14.5481H0L3.35714 5.5957Z" fill="#FFC107"/>
</svg>
